<svg xmlns="http://www.w3.org/2000/svg" width="512" height="512" viewBox="0 0 135.4667 135.4667"><circle cx="51.0435" cy="68.0366" r="42.3101" fill="#3cc" stroke="#000" stroke-width="2.0075"/><path fill="#fff" stroke="#000" stroke-width="2.0075" d="M32.6074 41.7215a14.0678 14.0683 0 0 0-14.0098 14.068 14.0678 14.0683 0 0 0 14.0684 14.068 14.0678 14.0683 0 0 0 14.0676-14.068 14.0678 14.0683 0 0 0-14.0676-14.068 14.0678 14.0683 0 0 0-.0585 0zM61.1408 34.4532a14.0678 14.0683 0 0 0-14.0098 14.068 14.0678 14.0683 0 0 0 14.0684 14.068 14.0678 14.0683 0 0 0 14.0676-14.068 14.0678 14.0683 0 0 0-14.0676-14.068 14.0678 14.0683 0 0 0-.0586 0z"/><circle cx="67.4607" cy="46.8127" r="3.8864"/><circle cx="38.3695" cy="55.3992" r="3.8864"/><path fill="#3c3" stroke="#000" stroke-width="1.5875" d="m99.6773 69.75 24.539 4.0482-4.0482 24.5391L95.629 94.289z"/><path fill="#c33" stroke="#000" stroke-width="1.5875" d="m93.0507 98.3114 20.554 14.0032-14.0032 20.554-20.554-14.0032z"/><path fill="#cc3" stroke="#000" stroke-width="1.5875" d="m95.3518 42.0665 24.1944-5.7611 5.7611 24.1943-24.1943 5.7612z"/><path fill="#3cc" stroke="#000" stroke-width="1.5875" d="M75.1834 18.9843 94.5773 3.414l15.5703 19.3938-19.3938 15.5703z"/></svg>